<svg xmlns="http://www.w3.org/2000/svg" width="202" height="70" fill="none" viewBox="0 0 202 70"><path stroke="#AFBCD8" stroke-linecap="round" stroke-opacity=".75" stroke-width="10" d="M127 53H146.5"/><path stroke="#AFBCD8" stroke-linecap="round" stroke-width="10" d="M127 18V53"/><path stroke="#EAACB8" stroke-linecap="round" stroke-opacity=".75" stroke-width="10" d="M165 35H186.5"/><path stroke="#EAACB8" stroke-linecap="round" stroke-width="10" d="M165 17.5V52.5"/><path stroke="#EAACB8" stroke-linecap="round" stroke-width="10" d="M165 17H187"/><path stroke="#EAACB8" stroke-linecap="round" stroke-width="10" d="M165 53H186.5"/><path stroke="#7ACBF5" stroke-linecap="round" stroke-opacity=".75" stroke-width="10" d="M97.5 37L106.5 53"/><path stroke="#7ACBF5" stroke-linecap="round" stroke-width="10" d="M87.5 17L97.5 17C110.5 17 110.5 37 97.5 37H87.5"/><path stroke="#7ACBF5" stroke-linecap="round" stroke-width="10" d="M87 53V17.5"/><path fill="url(#paint0_radial_79_2)" fill-rule="evenodd" d="M17.3403 11.6821C13.5829 10.8211 10 13.6758 10 17.5305V50.0204C10 52.9077 12.0564 55.3856 14.8943 55.9177L26.8943 58.1677C30.5868 58.86 34 56.0273 34 52.2704V20.2805C34 17.4832 32.0669 15.057 29.3403 14.4321L17.3403 11.6821ZM54.6469 11.7021C58.4076 10.8316 62 13.6874 62 17.5475V50.4842C62 53.3674 59.9493 55.8429 57.1165 56.3794L45.1165 58.6522C41.4209 59.3521 38 56.5183 38 52.757V20.3253C38 17.5329 39.9264 15.1096 42.6469 14.4799L54.6469 11.7021Z" clip-rule="evenodd"/><defs><radialGradient id="paint0_radial_79_2" cx="0" cy="0" r="1" gradientTransform="translate(10 12) rotate(42.1087) scale(70.0928 77.1704)" gradientUnits="userSpaceOnUse"><stop stop-color="#FDEFF0"/><stop offset=".275" stop-color="#FDB7C0"/><stop offset=".733" stop-color="#7ACBF5"/></radialGradient></defs></svg>