<svg xmlns="http://www.w3.org/2000/svg" width="1024" height="1024" fill="none" viewBox="0 0 1024 1024"><path stroke="#AFBCD8" stroke-linecap="round" stroke-opacity=".75" stroke-width="80" d="M432 880H588"/><path stroke="#AFBCD8" stroke-linecap="round" stroke-width="80" d="M432 600V880"/><path stroke="#EAACB8" stroke-linecap="round" stroke-opacity=".75" stroke-width="80" d="M736 736H908"/><path stroke="#EAACB8" stroke-linecap="round" stroke-width="80" d="M736 596V876"/><path stroke="#EAACB8" stroke-linecap="round" stroke-width="80" d="M736 592H912"/><path stroke="#EAACB8" stroke-linecap="round" stroke-width="80" d="M736 880H908"/><path stroke="#7ACBF5" stroke-linecap="round" stroke-opacity=".75" stroke-width="80" d="M196 752L268 880"/><path stroke="#7ACBF5" stroke-linecap="round" stroke-width="80" d="M116 592L196 592C300 592 300 752 196 752H116"/><path stroke="#7ACBF5" stroke-linecap="round" stroke-width="80" d="M112 880V596"/><path fill="url(#paint0_radial_9_306)" fill-rule="evenodd" d="M138.722 93.4571C108.663 86.5686 80 109.406 80 140.244V400.164C80 423.262 96.4515 443.085 119.154 447.341L215.154 465.341C244.694 470.88 272 448.218 272 418.164V162.244C272 139.865 256.535 120.456 234.722 115.457L138.722 93.4571ZM437.175 93.6168C467.261 86.6525 496 109.499 496 140.38V403.874C496 426.939 479.594 446.743 456.932 451.036L360.932 469.217C331.367 474.817 304 452.146 304 422.056V162.603C304 140.263 319.411 120.877 341.175 115.839L437.175 93.6168Z" clip-rule="evenodd"/><defs><radialGradient id="paint0_radial_9_306" cx="0" cy="0" r="1" gradientTransform="translate(80 96.0001) rotate(42.1087) scale(560.742 617.363)" gradientUnits="userSpaceOnUse"><stop stop-color="#FDEFF0"/><stop offset=".275" stop-color="#FDB7C0"/><stop offset=".733" stop-color="#7ACBF5"/></radialGradient></defs></svg>